<?xml version="1.0" standalone="no"?>
<!DOCTYPE svg PUBLIC "-//W3C//DTD SVG 20010904//EN"
 "http://www.w3.org/TR/2001/REC-SVG-20010904/DTD/svg10.dtd">
<svg version="1.0" xmlns="http://www.w3.org/2000/svg"
 width="1536.000000pt" height="1024.000000pt" viewBox="0 0 1536.000000 1024.000000"
 preserveAspectRatio="xMidYMid meet">
<metadata>
Created by potrace 1.16, written by Peter Selinger 2001-2019
</metadata>
<g transform="translate(0.000000,1024.000000) scale(0.100000,-0.100000)"
fill="#000000" stroke="none">
<path d="M0 5120 l0 -5120 7680 0 7680 0 0 5120 0 5120 -7680 0 -7680 0 0
-5120z m6540 3214 c406 -103 692 -456 717 -884 8 -145 -21 -287 -91 -444 -14
-32 -26 -62 -26 -67 0 -18 335 -299 356 -299 18 0 107 115 426 551 221 303
456 623 520 710 l118 159 452 -1 c249 0 475 -4 502 -7 l48 -7 -66 -53 c-36
-30 -66 -57 -66 -60 0 -4 -13 -21 -30 -38 -16 -18 -42 -50 -57 -72 -15 -21
-93 -125 -173 -230 -80 -106 -179 -238 -220 -294 -41 -56 -80 -106 -85 -112
-6 -6 -64 -83 -130 -171 -65 -88 -125 -166 -132 -173 -7 -7 -13 -16 -13 -20 0
-4 -17 -25 -37 -47 -20 -22 -36 -42 -35 -45 1 -3 -7 -16 -18 -30 -133 -174
-208 -273 -237 -312 -19 -27 -39 -48 -44 -48 -5 0 -8 -4 -7 -9 2 -5 -9 -22
-23 -38 -15 -17 -35 -42 -44 -57 -17 -26 -18 -26 -39 -9 l-21 18 19 -22 c16
-20 17 -25 5 -40 -8 -10 -20 -24 -26 -33 -48 -60 -294 -393 -339 -457 -20 -29
-40 -53 -45 -53 -5 0 -9 -5 -9 -11 0 -11 -71 -103 -95 -124 -7 -5 -13 -14 -15
-20 -1 -5 -19 -34 -39 -62 -25 -37 -41 -52 -53 -49 -18 4 -26 -10 -9 -16 10
-3 -69 -114 -97 -135 -9 -7 -12 -13 -8 -13 5 0 3 -7 -4 -15 -11 -13 -15 -13
-23 -3 -6 9 -7 8 -3 -5 7 -20 -100 -176 -121 -176 -7 -1 -12 -6 -10 -12 1 -6
-9 -13 -22 -15 -12 -2 -34 -13 -47 -23 -19 -15 -21 -20 -9 -25 8 -3 14 0 12 7
-1 7 4 11 11 9 8 -1 11 2 8 7 -3 5 3 11 14 14 25 6 25 -3 1 -29 -10 -11 -24
-30 -30 -42 -7 -13 -16 -20 -21 -17 -5 3 -12 0 -16 -6 -4 -8 -3 -9 4 -5 7 4
12 2 12 -3 0 -6 -3 -11 -7 -11 -5 0 -26 -25 -48 -56 -40 -55 -62 -74 -87 -74
-9 0 -9 3 2 10 17 11 10 13 -14 4 -9 -3 -13 -10 -10 -16 4 -5 -16 -8 -50 -5
-31 2 -59 1 -61 -3 -5 -8 53 -22 64 -16 14 9 91 14 86 6 -3 -4 -38 -11 -77
-16 -53 -5 -66 -9 -48 -14 14 -4 32 -4 40 0 8 4 27 8 42 8 l28 0 -30 -38 c-31
-39 -91 -63 -130 -53 -11 3 -31 -4 -47 -17 -29 -24 -27 -24 21 0 23 11 30 12
34 2 2 -7 8 -10 13 -6 13 8 50 -6 44 -16 -6 -9 -57 -6 -75 5 -15 9 -30 -3 -23
-20 6 -17 53 -21 53 -5 0 6 5 10 11 10 17 0 5 -22 -53 -99 -46 -61 -57 -71
-84 -71 -17 0 -37 7 -44 15 -8 9 -9 15 -2 15 6 0 13 -4 16 -9 6 -9 54 -7 64 3
3 3 -9 4 -26 2 -18 -2 -32 1 -32 6 0 5 -11 7 -25 5 -26 -3 -47 -17 -26 -17 7
0 19 -7 27 -15 9 -8 27 -15 42 -16 l27 -1 -25 -7 c-18 -5 -35 -1 -61 16 -33
22 -69 23 -69 3 0 -14 27 -19 39 -7 10 9 15 8 26 -6 7 -10 26 -22 42 -27 l28
-8 -28 -1 c-18 -1 -26 -5 -21 -12 3 -6 -6 -3 -21 7 -20 13 -46 18 -97 17 -46
0 -68 3 -65 11 2 6 10 11 18 11 8 0 24 6 35 12 12 7 24 9 28 6 3 -3 6 1 6 10
0 21 -4 21 -35 1 -13 -9 -29 -13 -35 -9 -5 3 -10 1 -10 -6 0 -7 -3 -9 -6 -6
-4 3 -15 2 -25 -4 -13 -7 -19 -6 -19 1 0 6 -5 8 -10 5 -7 -4 -3 -14 11 -26 12
-10 26 -16 30 -13 5 3 9 1 9 -3 0 -5 30 -8 66 -6 36 2 72 -1 81 -5 8 -5 -101
-9 -258 -10 -179 0 -278 3 -286 10 -9 7 -13 7 -13 0 0 -7 -22 -11 -55 -11 -30
1 -55 5 -55 9 0 5 10 6 23 3 18 -4 19 -3 7 6 -23 16 -53 14 -46 -4 3 -9 0 -15
-9 -15 -9 0 -12 6 -9 15 4 8 1 15 -5 15 -6 0 -11 -6 -11 -12 0 -10 -2 -10 -9
0 -11 18 -73 11 -79 -8 -4 -12 -2 -13 9 -3 8 7 20 8 28 4 9 -6 1 -11 -24 -15
-20 -4 -39 -5 -42 -2 -3 3 14 31 38 62 26 34 45 51 47 43 3 -8 10 -20 16 -28
9 -12 7 -13 -11 -9 -13 4 -27 0 -34 -8 -10 -13 -7 -14 19 -9 18 3 32 1 32 -3
0 -10 30 -9 47 1 7 4 27 -2 45 -13 34 -21 53 -26 44 -12 -3 4 9 7 25 6 30 -2
83 18 73 28 -2 3 3 8 12 12 12 4 15 2 10 -9 -3 -10 1 -15 12 -16 9 -1 24 -2
32 -3 8 -1 31 7 50 16 37 19 75 23 84 10 9 -16 74 -12 87 4 11 14 10 18 -5 29
-10 8 -15 19 -11 25 3 6 3 10 -2 9 -4 -1 -18 -1 -30 0 -37 2 -26 17 12 17 19
0 35 -3 35 -7 0 -3 27 -9 61 -13 44 -4 66 -2 81 8 19 14 19 14 -4 22 -25 8
-101 15 -80 7 24 -9 12 -21 -20 -19 -19 2 -32 7 -31 14 4 15 -2 15 -27 0 -17
-11 -22 -10 -29 1 -6 9 -11 10 -15 2 -4 -6 -11 -9 -16 -6 -5 3 -17 1 -27 -4
-25 -14 -96 -28 -111 -23 -20 6 -3 22 26 23 l27 1 -25 8 c-14 4 -36 8 -50 8
l-25 0 25 -7 c24 -7 24 -7 5 -18 -19 -11 -19 -12 8 -22 30 -12 101 -1 120 18
13 13 27 14 27 2 0 -5 -9 -13 -21 -16 -11 -4 -18 -9 -16 -12 3 -2 14 0 24 5
12 6 26 5 42 -4 23 -12 23 -12 3 -23 -31 -17 -47 -14 -32 4 11 13 9 14 -15 1
-16 -8 -32 -13 -37 -10 -4 3 -8 0 -8 -6 0 -7 -6 -10 -12 -7 -7 2 -21 -2 -30
-11 -16 -14 -20 -13 -37 2 -10 9 -22 16 -27 15 -20 -3 -34 2 -34 12 0 7 10 9
25 5 69 -17 80 -16 40 2 -37 18 -42 18 -73 3 -31 -14 -35 -14 -47 2 -12 17
-41 25 -31 8 10 -16 -21 -20 -61 -9 -36 11 -37 12 -13 19 19 5 15 7 -17 5 -23
-1 -46 -6 -50 -10 -4 -5 -3 -6 3 -3 17 10 106 -32 98 -45 -5 -7 -2 -9 8 -5 9
3 19 3 22 0 9 -10 56 -10 56 -1 0 4 -11 8 -24 8 -14 0 -28 5 -32 12 -5 8 2 9
26 5 18 -4 42 -7 53 -7 25 0 15 -12 -27 -34 -22 -11 -34 -12 -49 -4 -15 7 -22
7 -28 -3 -7 -11 -9 -11 -9 -1 0 7 -4 11 -9 7 -5 -3 -13 0 -16 6 -4 6 -23 8
-49 4 -40 -6 -40 -5 -16 9 14 8 34 13 45 10 l20 -5 -20 16 c-11 9 -32 15 -47
12 -17 -2 -29 2 -33 11 -6 15 -2 20 639 877 649 866 766 1025 766 1039 0 7
-26 40 -57 71 -32 32 -57 62 -55 67 1 4 -1 7 -6 6 -7 -3 -46 31 -153 132 -89
85 -84 84 -159 32 -272 -188 -582 -239 -855 -140 -44 16 -88 32 -97 35 -10 3
-18 12 -18 19 0 14 -48 39 -58 30 -2 -3 7 -8 22 -12 14 -3 26 -10 26 -15 0 -9
-18 0 -84 38 -11 7 -20 18 -18 24 2 7 -4 9 -13 6 -8 -4 -15 -2 -15 4 0 5 7 12
15 15 8 4 12 11 9 16 -4 7 -9 6 -13 -1 -12 -19 -70 11 -130 67 -37 34 -49 51
-40 55 9 3 6 6 -7 6 -14 1 -40 30 -87 102 -37 55 -70 112 -73 127 -4 15 -10
32 -14 37 -7 10 -40 104 -44 128 -1 7 -8 39 -16 72 -8 41 -11 105 -8 200 5
127 8 150 41 247 91 270 259 461 502 574 202 93 426 114 645 58z m2244 -1844
c26 -9 26 -11 26 -110 0 -86 -2 -102 -17 -108 -20 -8 -200 -9 -208 -1 -2 3 -6
51 -9 108 -4 97 -3 103 18 111 29 12 159 12 190 0z m360 0 c26 -9 26 -11 26
-110 0 -86 -2 -102 -17 -108 -27 -11 -193 -6 -205 6 -5 5 -12 53 -15 106 -5
94 -5 96 18 105 32 13 161 14 193 1z m346 -3 c24 -12 25 -16 24 -110 0 -53 -3
-100 -7 -103 -6 -7 -113 -7 -187 -2 l-35 3 -3 107 c-2 95 -1 107 15 111 39 10
169 6 193 -6z m-689 -362 c13 -8 8 -199 -5 -213 -10 -9 -146 -9 -146 1 0 4
-15 7 -33 7 l-34 0 -3 73 c-1 39 -3 86 -4 102 -1 28 2 30 39 35 53 8 170 4
186 -5z m357 0 c8 -3 12 -33 12 -104 0 -69 -4 -102 -12 -108 -15 -9 -205 -10
-214 -1 -3 4 -6 53 -7 110 l-2 103 55 6 c54 5 143 2 168 -6z m345 -5 c13 -11
11 -190 -2 -203 -16 -16 -184 -15 -204 2 -17 14 -19 52 -2 63 6 5 6 8 -2 8 -9
0 -13 21 -13 69 l0 70 53 3 c68 4 160 -2 170 -12z m-1386 -177 c26 -27 142
-129 257 -228 115 -99 280 -241 366 -316 119 -102 340 -283 398 -324 1 -1 26
-69 53 -151 65 -191 138 -339 250 -510 49 -75 89 -141 89 -147 0 -14 -6 -6
-53 61 -20 28 -37 57 -37 64 0 6 -6 3 -14 -7 -13 -18 -14 -18 -49 4 -19 12
-38 18 -41 12 -3 -5 8 -14 24 -21 17 -7 29 -15 26 -17 -2 -3 -19 2 -38 10 -18
8 -40 18 -48 20 -12 4 -11 6 3 6 19 1 24 21 5 21 -6 0 -8 3 -5 6 4 4 13 1 22
-6 8 -7 15 -8 15 -3 0 5 14 10 32 11 41 3 49 11 19 19 -16 4 -19 8 -10 14 8 5
0 7 -20 7 -31 -1 -32 -2 -16 -15 11 -7 14 -13 8 -13 -15 0 -34 25 -25 35 4 4
0 5 -8 3 -8 -3 -14 -9 -13 -14 2 -15 -25 -35 -32 -24 -3 6 0 11 7 12 7 0 -7 4
-32 7 -25 4 -51 2 -58 -3 -9 -6 -18 -4 -28 6 -9 9 -26 13 -42 10 -23 -5 -20
-7 28 -23 30 -10 57 -15 60 -11 8 12 50 13 50 1 0 -5 -4 -8 -8 -5 -5 3 -20 -1
-35 -9 -23 -12 -29 -12 -41 1 -8 8 -21 14 -30 14 -8 0 -28 5 -43 11 -15 7 -44
18 -63 26 -19 8 -42 18 -50 22 -9 5 -34 12 -56 15 -21 4 -46 12 -54 17 -11 8
-7 9 15 4 17 -4 48 -9 70 -10 22 -2 42 -4 45 -5 3 -1 14 -3 25 -5 11 -1 38 -9
60 -16 22 -8 47 -14 55 -13 8 1 20 2 26 3 7 0 14 7 17 15 5 12 1 13 -27 1 -30
-13 -37 -12 -82 11 -29 15 -60 24 -76 21 -16 -2 -28 0 -28 5 0 4 -7 8 -16 8
-8 0 -12 -4 -9 -10 8 -14 3 -13 -33 6 -18 8 -36 13 -42 9 -21 -13 -47 -13 -95
0 -28 8 -44 14 -37 14 6 1 12 6 12 12 0 6 -7 8 -15 5 -9 -3 -24 0 -35 6 -18
11 -17 13 12 25 16 7 34 10 39 7 5 -3 9 0 9 5 0 14 -37 14 -45 1 -3 -5 -11
-10 -18 -10 -7 0 -5 6 4 16 21 20 107 28 128 11 14 -11 14 -10 2 6 -7 9 -20
17 -28 17 -8 0 -11 5 -8 11 4 6 13 8 21 5 7 -3 20 1 28 9 8 8 21 15 28 15 10
0 10 -2 -1 -9 -9 -6 -10 -11 -2 -15 6 -4 11 -2 11 3 0 6 5 11 11 11 6 0 9 -6
6 -12 -2 -7 -13 -13 -25 -13 -11 0 -24 -4 -28 -8 -4 -4 9 -7 28 -7 20 0 38 5
40 11 2 7 19 13 36 14 18 2 31 0 27 -3 -9 -9 -78 -34 -98 -35 -16 -1 -34 -33
-24 -43 3 -3 26 2 52 11 26 8 50 13 53 10 9 -8 -5 -17 -31 -20 -21 -3 -77 -32
-77 -40 0 -9 46 11 54 23 7 12 10 12 17 1 8 -12 11 -12 19 1 5 8 10 11 10 7 0
-5 7 -1 17 8 14 14 14 18 2 26 -12 7 -12 9 1 9 8 0 21 -10 29 -21 11 -19 11
-21 -3 -16 -8 3 -18 2 -21 -3 -4 -6 5 -10 19 -10 13 0 26 5 28 10 2 6 17 8 36
4 l33 -7 -28 -17 c-32 -20 -42 -18 -23 5 15 18 0 21 -18 3 -14 -14 -52 -18
-52 -6 0 5 -9 4 -20 -2 -11 -6 -25 -8 -30 -5 -6 3 -10 1 -10 -6 0 -7 10 -9 25
-7 14 3 28 1 31 -4 3 -5 11 -5 18 1 9 8 27 4 62 -14 55 -28 104 -40 104 -25 0
5 20 9 45 8 43 -2 66 -18 26 -18 -10 0 -25 -8 -32 -17 -12 -15 -12 -16 6 -9
36 15 65 18 65 8 0 -6 -12 -13 -27 -15 -17 -2 -10 -4 15 -4 24 0 45 4 48 9 3
4 -1 8 -9 8 -7 0 -20 11 -27 25 -12 23 -17 24 -86 21 -40 -1 -71 0 -69 4 7 12
-22 20 -42 13 -11 -4 -14 -3 -9 5 4 7 22 12 39 13 18 0 26 3 19 6 -6 2 -10 8
-7 13 7 11 52 0 66 -16 9 -11 5 -14 -22 -14 -24 0 -30 -3 -20 -9 8 -5 24 -6
35 -2 12 5 28 6 36 3 11 -4 10 0 -3 16 -18 20 -18 21 3 32 12 6 24 9 27 6 3
-3 -5 -9 -17 -14 -14 -5 -19 -11 -13 -15 6 -4 18 0 26 8 18 17 31 20 22 5 -3
-5 -1 -10 4 -10 6 0 11 5 11 10 0 6 7 10 16 10 13 0 14 -3 5 -14 -10 -11 -8
-15 6 -19 10 -3 -2 -3 -26 0 -33 5 -42 3 -37 -6 5 -7 14 -10 22 -7 7 3 16 1
20 -5 3 -5 14 -9 24 -7 11 2 19 0 20 -4 1 -27 -2 -29 -26 -13 -18 11 -25 13
-22 4 7 -20 82 -59 89 -47 4 6 -7 37 -25 69 -28 53 -34 59 -63 59 -18 0 -33 4
-33 8 0 5 13 7 30 6 16 -1 27 2 24 7 -3 5 -10 7 -15 3 -5 -3 -16 0 -24 6 -12
10 -15 10 -15 -1 -1 -11 -4 -10 -13 2 -8 10 -19 14 -32 9 -17 -6 -17 -8 9 -16
l29 -10 -29 -18 c-19 -13 -29 -15 -32 -8 -2 7 -19 12 -38 12 -24 0 -33 4 -28
12 4 7 3 8 -5 4 -6 -4 -20 -4 -32 -1 -19 6 -20 8 -3 26 15 17 15 19 1 19 -8 0
-24 3 -34 6 -10 3 -8 -1 6 -9 16 -9 20 -17 12 -21 -6 -4 -9 -11 -6 -16 3 -4
-1 -10 -8 -13 -8 -3 -19 4 -26 15 -11 18 -11 20 3 15 9 -4 16 -2 16 3 0 14
-22 24 -29 13 -8 -13 -78 -36 -93 -31 -6 2 4 10 23 17 19 7 48 20 65 27 36 16
81 16 104 0 13 -9 13 -8 0 6 -16 17 -74 31 -84 21 -12 -13 -97 -5 -121 11 -20
13 -25 13 -35 1 -13 -16 -35 -21 -26 -6 3 4 -7 6 -22 4 -15 -2 -37 -5 -49 -6
-13 0 -23 -4 -23 -9 0 -4 -6 -5 -14 -2 -7 3 -20 -2 -29 -10 -20 -20 -41 -20
-58 0 -11 13 -9 15 12 11 13 -2 18 -2 12 0 -20 7 -15 23 6 23 11 0 23 5 27 11
4 8 0 9 -15 4 -11 -3 -21 -2 -21 3 0 15 -32 24 -44 12 -8 -8 -6 -9 5 -5 10 4
20 2 24 -4 9 -15 -28 -14 -43 1 -17 17 -15 26 6 31 13 4 12 5 -5 6 -24 1 -56
38 -46 54 4 6 0 8 -9 5 -21 -8 -45 31 -26 43 9 6 7 9 -9 9 -13 0 -23 4 -23 10
0 5 7 6 17 3 11 -4 14 -3 9 6 -4 6 -16 9 -27 6 -33 -11 -21 12 14 23 34 12 34
12 -37 -1 -5 -1 -15 13 -23 31 -13 32 -13 33 8 22 15 -9 24 -9 32 -1 19 19 31
12 13 -8 -10 -11 -25 -17 -34 -14 -15 4 -15 3 -2 -6 11 -7 20 -5 35 9 12 11
29 20 38 20 9 0 17 5 17 10 0 6 8 10 18 10 9 0 23 4 30 8 8 6 2 9 -17 9 -17 0
-32 -6 -35 -14 -3 -7 -13 -13 -23 -13 -15 0 -16 2 -3 10 12 8 9 9 -12 8 -15
-1 -24 -6 -22 -10 3 -5 -14 -6 -37 -4 -24 2 -45 9 -47 15 -2 6 2 9 10 6 7 -3
27 0 43 5 l30 10 -28 -4 c-16 -2 -35 3 -43 11 -8 8 -14 10 -14 4 0 -6 -7 -11
-15 -11 -18 0 -20 20 -2 21 6 0 -3 7 -20 15 -37 16 -44 29 -12 21 20 -5 20 -5
3 14 -16 18 -16 19 2 19 16 0 16 2 4 10 -9 6 -17 5 -21 -2 -5 -7 -8 -7 -13 0
-4 6 2 15 11 21 10 6 13 11 6 11 -6 0 -15 -4 -18 -10 -3 -5 -14 -10 -23 -10
-13 0 -12 5 8 21 21 17 22 19 3 10 -32 -16 -35 -15 -71 29 -18 22 -26 37 -18
34 7 -3 17 -1 21 5 5 10 -15 16 -39 12 -12 -2 -35 32 -29 42 3 5 -4 11 -16 14
-12 3 -21 12 -21 21 0 12 3 13 12 4 7 -7 17 -12 23 -12 5 0 2 7 -8 15 -11 7
-25 11 -31 9 -12 -5 -80 68 -86 91 -1 6 -11 16 -22 23 -10 7 -16 17 -13 22 3
5 -4 11 -14 15 -11 3 -18 12 -15 19 3 8 -4 16 -16 19 -12 3 -19 10 -15 16 3 6
2 11 -4 11 -16 0 -51 42 -44 53 3 6 1 7 -4 4 -14 -9 -37 19 -28 33 3 6 -3 10
-15 10 -15 0 -20 5 -17 14 5 12 219 306 224 306 1 0 23 -21 50 -47z m1051
-257 c3 -75 2 -78 -18 -73 -11 3 -18 1 -14 -4 3 -5 12 -9 19 -9 10 0 14 -9 13
-25 -2 -17 -8 -24 -23 -24 -11 1 -51 -2 -90 -5 -50 -5 -64 -4 -48 3 27 12 21
37 -10 45 -21 5 -20 4 3 -14 l25 -20 -28 0 c-18 0 -26 -4 -21 -11 5 -8 1 -8
-14 0 -18 9 -21 23 -24 108 -2 54 -2 102 0 106 2 4 54 6 115 5 l112 -3 3 -79z
m340 -28 l3 -107 -33 -6 c-28 -5 -54 -4 -139 4 -3 1 -6 16 -7 35 -1 27 3 36
19 41 11 4 18 9 16 12 -3 2 -14 0 -25 -6 -16 -8 -21 -7 -26 4 -3 8 -11 15 -17
15 -8 0 -8 -4 -1 -13 6 -7 16 -25 22 -41 9 -24 8 -27 -4 -23 -9 4 -18 2 -21
-3 -3 -5 0 -10 7 -13 8 -2 7 -3 -2 -3 -12 1 -16 22 -20 104 -3 63 -1 104 5
106 6 3 57 4 115 3 l105 -2 3 -107z m-2208 -2123 c83 -19 131 -40 201 -87 136
-90 230 -281 224 -453 -4 -102 -3 -98 -29 -93 -18 4 -23 1 -19 -9 3 -8 13 -11
24 -8 14 5 17 2 13 -9 -5 -12 -10 -13 -30 -4 -13 6 -24 15 -24 20 0 4 -3 7 -7
7 -27 -4 -53 2 -47 12 4 8 0 9 -15 4 -30 -9 -26 9 4 23 35 16 53 16 37 0 -15
-15 -15 -28 -1 -28 5 0 8 4 5 9 -3 5 1 12 10 15 12 5 15 2 10 -11 -6 -15 -4
-15 14 2 11 10 18 20 16 22 -2 2 -34 5 -71 7 -36 2 -61 0 -55 -4 9 -6 9 -13 1
-28 -10 -18 -7 -20 34 -26 41 -7 73 -26 43 -26 -8 0 -6 -5 5 -11 10 -6 24 -8
31 -6 17 7 43 -10 32 -20 -5 -4 -11 -3 -13 4 -3 10 -9 10 -24 0 -14 -9 -22 -9
-27 -1 -4 6 -17 14 -29 18 -13 4 -23 11 -23 16 0 4 -8 10 -18 12 -11 3 -19 0
-19 -8 0 -7 4 -11 9 -8 4 3 17 -1 29 -9 15 -11 17 -17 8 -23 -7 -4 -15 -2 -17
4 -2 7 -13 12 -25 12 -19 0 -17 -3 12 -21 35 -21 37 -38 3 -20 -30 16 -41 13
-12 -4 14 -7 35 -11 48 -8 23 5 31 -11 10 -21 -7 -2 6 -3 30 0 40 4 42 3 32
-16 -7 -12 -22 -20 -40 -21 -42 -2 -42 -2 -70 -22 -16 -11 -19 -17 -9 -17 8 0
21 6 28 13 9 7 11 7 8 1 -4 -7 0 -15 9 -18 23 -9 29 0 14 19 -13 16 -6 18 25
6 17 -7 15 -11 -24 -39 -27 -20 -37 -32 -27 -32 9 0 14 -4 11 -10 -4 -6 -13
-5 -24 2 -18 11 -18 12 3 29 18 16 19 18 4 19 -10 0 -18 -4 -18 -10 0 -5 -7
-10 -16 -10 -8 0 -12 -4 -9 -10 3 -5 2 -10 -4 -10 -5 0 -13 5 -16 11 -9 14
-16 10 -60 -39 -29 -32 -35 -46 -27 -54 7 -7 12 -17 12 -23 0 -5 -7 -2 -14 8
-13 16 -15 16 -37 -3 -13 -10 -19 -19 -13 -20 5 0 15 5 22 12 9 9 12 9 12 1 0
-11 -30 -25 -60 -27 -8 -1 -33 -8 -54 -15 l-39 -14 24 -14 c23 -14 23 -14 2
-10 -13 3 -25 2 -28 -3 -6 -10 -54 -10 -61 1 -3 5 -17 9 -32 9 -26 0 -108 20
-146 36 -14 5 -17 4 -12 -4 5 -8 2 -10 -9 -5 -10 3 -13 8 -6 12 6 4 2 12 -9
19 -13 8 -20 9 -20 1 0 -5 -5 -7 -12 -3 -6 4 -25 11 -42 15 -30 8 -30 8 6 6
30 -2 35 0 26 11 -7 7 -22 12 -35 9 -15 -3 -22 0 -20 7 3 6 11 10 18 8 8 -2
10 0 6 4 -4 5 -20 9 -35 9 -15 0 -32 4 -39 8 -7 4 -27 5 -45 2 -23 -4 -29 -2
-18 4 8 5 18 7 24 4 5 -3 6 -1 3 5 -4 5 -17 8 -29 4 -14 -3 -19 -2 -14 6 10
16 31 15 64 -2 15 -7 38 -17 52 -21 22 -7 23 -6 11 9 -7 9 -25 16 -40 16 -24
1 -24 2 -8 14 21 16 22 26 2 26 -9 0 -18 7 -21 15 -6 16 -54 21 -54 6 0 -18
-49 -18 -66 0 -10 11 -12 19 -7 19 6 0 13 -6 16 -14 7 -17 46 -10 54 10 6 17
53 7 70 -15 7 -9 4 5 -5 31 -9 26 -19 42 -23 36 -4 -6 -16 -7 -29 -3 -18 6
-22 4 -17 -8 5 -13 1 -14 -25 -7 -24 8 -29 6 -24 -5 4 -10 -1 -15 -14 -15 -11
0 -20 3 -20 8 0 13 39 32 54 26 8 -3 17 -1 21 5 4 7 -6 11 -27 12 -28 0 -30 2
-13 10 17 8 17 9 -5 4 -14 -2 -32 -5 -40 -5 -8 -1 -4 -6 10 -12 22 -10 23 -12
6 -16 -10 -2 -22 2 -27 10 -15 23 -10 36 14 32 12 -2 16 -2 10 2 -7 3 -13 11
-13 17 0 8 4 7 12 -1 7 -7 21 -12 31 -12 11 0 34 -9 53 -20 l32 -21 7 21 c9
27 2 34 -22 22 -11 -6 -23 -8 -29 -4 -14 11 -13 42 2 42 8 0 11 -6 8 -15 -4
-8 -1 -15 6 -15 7 0 10 8 7 20 -3 11 -1 23 4 26 5 3 9 12 9 20 0 8 -4 13 -9 9
-5 -3 -16 4 -25 16 -11 16 -19 19 -28 12 -8 -6 -21 -7 -33 -2 -13 5 -15 8 -5
8 8 1 33 4 55 7 27 4 36 3 26 -4 -8 -6 -9 -12 -3 -16 16 -9 25 13 13 28 -8 9
-23 11 -49 6 -53 -9 -64 -18 -57 -43 5 -17 4 -19 -4 -7 -9 13 -11 13 -11 -2 0
-18 8 -19 78 -18 28 0 41 -3 37 -10 -3 -6 -11 -8 -16 -5 -5 4 -16 0 -24 -9
-11 -11 -12 -16 -2 -19 6 -3 2 -6 -11 -6 -13 -1 -32 4 -43 9 -24 13 -48 2 -28
-12 11 -8 11 -9 -1 -5 -8 2 -15 10 -15 18 0 8 -4 18 -10 22 -6 5 1 6 15 3 63
-15 76 -16 45 -5 -16 7 -33 16 -36 21 -3 5 -12 8 -19 6 -9 -2 -16 11 -21 37
-12 63 -11 125 3 125 8 0 9 3 1 11 -21 21 22 166 75 250 82 129 214 217 362
242 59 10 190 6 250 -8z m3247 -135 c30 -80 105 -285 168 -457 63 -171 123
-329 134 -351 25 -48 70 -88 111 -97 19 -4 30 -13 30 -23 0 -13 -2 -14 -9 -4
-4 7 -24 14 -44 15 -19 1 -33 4 -31 6 9 10 -21 31 -45 31 -17 0 -22 3 -13 8
13 9 6 42 -8 42 -15 0 -21 -18 -8 -22 7 -3 2 -7 -11 -11 -17 -4 -21 -2 -17 9
7 18 -2 18 -21 -1 -8 -9 -18 -13 -21 -10 -4 3 0 11 8 16 12 8 10 10 -8 6 -19
-5 -21 -3 -11 9 13 15 9 17 -15 8 -9 -3 -14 -10 -11 -15 3 -4 -8 -3 -25 2 -16
6 -30 16 -30 21 0 7 4 7 13 1 12 -11 29 -10 58 2 10 3 20 2 24 -4 10 -17 65
-14 65 4 0 8 -5 15 -11 15 -5 0 -7 5 -4 10 7 11 -28 14 -38 3 -4 -3 1 -12 11
-19 14 -11 10 -11 -20 0 -45 15 -58 25 -25 19 14 -3 28 0 31 5 4 7 -10 10 -40
9 -25 -1 -50 3 -55 9 -13 16 27 55 48 47 12 -5 14 -3 9 8 -4 8 -1 6 7 -4 13
-15 15 -16 21 -2 3 9 -1 18 -10 22 -14 5 -12 8 7 19 13 7 18 13 11 14 -6 0
-29 -9 -49 -20 -21 -11 -44 -20 -51 -20 -7 0 -10 -5 -6 -12 4 -7 3 -8 -5 -4
-14 9 -5 26 15 26 8 0 14 5 14 11 0 6 7 9 15 5 8 -3 15 -1 15 4 0 5 6 10 13
13 6 2 2 2 -10 1 -12 -2 -25 1 -29 8 -5 8 -2 9 9 5 9 -3 19 -2 22 2 10 18 -27
20 -52 4 -20 -13 -28 -14 -31 -5 -2 6 -12 12 -22 12 -10 0 -20 8 -23 18 -2 11
-17 22 -36 25 -17 4 -31 11 -31 17 0 7 6 8 19 0 12 -6 22 -6 25 -1 4 5 0 12
-6 15 -7 3 -3 3 10 0 13 -3 22 -1 22 6 0 7 6 5 16 -4 17 -17 49 -22 39 -6 -3
6 1 7 9 4 9 -4 16 -1 16 6 0 8 -9 10 -25 6 -16 -4 -35 0 -52 11 -15 10 -24 13
-20 6 9 -14 -43 -27 -97 -24 -27 2 -36 -1 -31 -9 4 -6 12 -9 19 -7 6 2 20 1
31 -4 16 -6 14 -7 -10 -7 -16 1 -37 8 -46 15 -23 19 -183 25 -168 6 9 -10 4
-9 -17 2 -40 20 -66 19 -62 -2 2 -14 -3 -17 -22 -15 -20 3 -23 1 -12 -9 20
-21 14 -32 -13 -25 -14 4 -25 2 -25 -4 0 -5 9 -10 20 -10 11 0 20 -4 20 -9 0
-5 -12 -8 -27 -5 -22 4 -24 3 -14 -10 15 -18 5 -40 -15 -32 -8 3 -14 -1 -14
-9 0 -9 6 -12 15 -9 8 4 15 3 15 0 0 -4 -10 -11 -22 -15 -21 -8 -22 -10 -4
-16 11 -5 22 -3 28 6 6 10 7 6 2 -11 -4 -14 -13 -47 -20 -75 -7 -27 -13 -43
-13 -35 -1 10 -6 8 -17 -8 -8 -12 -21 -22 -27 -22 -7 0 -4 5 5 11 19 11 13 39
-8 39 -13 0 -18 -12 -15 -32 0 -5 -4 -8 -11 -8 -6 0 -3 -7 8 -16 18 -14 18
-15 -3 -4 -13 6 -24 7 -24 3 -1 -4 -2 -14 -3 -22 0 -8 -8 -17 -16 -19 -13 -5
-13 -3 -1 11 17 21 14 21 -31 -2 -21 -10 -34 -21 -31 -25 4 -3 -1 -6 -10 -6
-30 0 -18 28 14 35 56 13 100 70 143 185 21 58 49 132 61 165 38 96 256 658
266 683 7 19 15 22 51 20 l42 -3 53 -145z m-6107 85 c0 -37 -4 -55 -12 -55
-10 0 -10 -2 -1 -8 7 -4 15 -40 18 -80 5 -62 3 -72 -11 -72 -12 0 -15 6 -10
26 5 17 3 23 -4 19 -5 -3 -10 -4 -10 -1 0 2 -3 12 -6 20 -4 11 -2 15 8 11 9
-4 15 0 15 10 0 11 -6 15 -18 12 -12 -3 -20 2 -24 13 -3 11 -23 33 -43 50 -53
44 -54 45 -82 47 -14 2 -60 6 -103 11 -43 4 -82 5 -88 2 -6 -4 -10 -168 -9
-464 0 -504 0 -504 61 -525 18 -6 40 -11 50 -11 11 0 19 -7 19 -17 0 -13 -3
-14 -12 -5 -7 7 -33 12 -59 12 -29 0 -51 6 -59 15 -15 18 0 20 20 3 12 -11 12
-10 2 3 -13 18 -61 31 -76 22 -5 -3 2 -12 15 -19 13 -7 19 -13 13 -14 -5 0
-19 7 -30 15 -25 19 -38 19 -30 -1 4 -12 0 -15 -17 -12 -13 2 -22 10 -21 19 1
12 -6 16 -28 14 -34 -3 -64 -25 -33 -25 10 0 16 -3 13 -6 -6 -5 -40 -11 -88
-14 -24 -2 -23 -3 5 -10 l30 -8 -34 1 c-45 3 -51 23 -9 31 79 16 99 57 100
210 l1 92 31 -4 c17 -3 44 -14 60 -25 16 -12 26 -16 22 -9 -6 11 11 17 37 13
4 0 7 4 7 10 0 7 -14 8 -42 4 -43 -7 -43 -7 -19 11 21 15 22 18 6 26 -12 7
-21 6 -28 -2 -9 -10 -8 -12 6 -7 9 4 17 2 17 -2 0 -12 -21 -19 -42 -13 -10 2
-15 9 -11 16 4 6 -1 5 -10 -3 -12 -9 -17 -10 -17 -2 0 7 -4 9 -10 6 -6 -4 -9
29 -8 90 0 52 5 95 10 95 5 0 6 -6 2 -12 -5 -8 2 -7 16 3 30 19 37 39 15 39
-9 0 -14 4 -11 9 3 5 -1 12 -9 15 -13 4 -14 2 -5 -14 6 -11 16 -20 22 -20 8 0
8 -4 -1 -12 -11 -11 -14 -10 -18 0 -3 6 -8 10 -12 7 -5 -2 -9 20 -10 49 -1 40
3 55 13 59 22 9 29 -10 9 -22 -10 -5 -15 -12 -11 -16 3 -3 12 0 19 8 10 11 21
12 38 5 16 -6 28 -5 35 2 8 8 6 9 -8 4 -14 -5 -17 -4 -11 5 6 10 2 11 -15 6
-18 -6 -22 -4 -17 8 4 12 2 14 -10 10 -12 -5 -14 -3 -8 8 6 11 5 12 -6 2 -18
-17 -29 -16 -29 3 0 9 5 12 13 8 8 -5 8 -2 -2 9 -11 14 -11 20 0 34 8 9 9 14
3 10 -8 -5 -12 31 -13 129 -1 101 2 133 11 128 7 -5 9 -2 5 8 -6 17 12 26 71
34 25 4 32 1 26 -8 -5 -10 -4 -11 7 0 16 14 33 16 24 2 -7 -12 -3 -12 19 -4
30 12 16 21 -36 23 -28 1 -70 -6 -93 -15 -29 -11 -66 -15 -118 -12 -41 1 -73
0 -71 -3 2 -4 -13 -9 -33 -12 -57 -10 -109 -53 -140 -116 -15 -31 -31 -57 -35
-59 -4 -2 -4 -10 -1 -18 3 -8 0 -14 -6 -14 -6 0 -11 14 -11 31 0 17 4 28 10
24 6 -3 10 -1 10 4 0 6 -4 11 -10 11 -6 0 -10 40 -10 100 l0 100 465 0 465 0
0 -55z m881 -2 c0 -32 2 -86 6 -120 4 -54 3 -63 -12 -63 -9 0 -13 5 -10 10 3
6 2 10 -4 10 -6 0 -14 12 -17 28 -4 15 -22 46 -41 69 -45 56 -93 70 -250 72
l-123 2 0 -221 0 -220 70 0 c139 0 215 33 242 105 6 19 16 35 20 35 4 0 8 -72
8 -160 0 -130 -3 -160 -14 -160 -7 0 -16 9 -19 20 -6 22 8 28 16 8 3 -8 6 -6
6 5 1 9 -3 17 -9 17 -5 0 -24 16 -41 35 -23 25 -43 36 -75 41 -24 3 -44 11
-44 18 0 7 -3 7 -8 1 -4 -5 -42 -11 -85 -13 -93 -3 -117 -11 -91 -33 16 -12
17 -12 11 4 -3 9 -2 17 3 17 6 0 10 -83 11 -212 1 -117 4 -224 8 -238 l7 -25
135 0 c119 0 139 3 181 23 52 26 84 63 124 146 16 31 32 56 37 56 12 0 -3
-163 -16 -175 -7 -7 -7 -5 -2 4 6 11 4 13 -8 8 -8 -3 -21 1 -28 9 -10 12 -14
12 -20 2 -5 -8 1 -17 19 -25 27 -11 26 -12 -9 -8 -22 2 -44 -2 -55 -11 -18
-14 -18 -14 1 -8 16 5 17 4 5 -4 -8 -6 -17 -9 -21 -6 -4 2 -23 -3 -43 -11 -19
-8 -47 -15 -61 -15 -14 0 -25 -3 -25 -7 0 -12 -256 -8 -272 4 -28 22 -47 22
-62 1 -9 -12 -19 -19 -23 -15 -3 4 2 14 13 23 18 14 17 14 -16 8 -19 -4 -41
-7 -47 -7 -22 0 -14 -15 10 -20 12 -2 4 -3 -18 -1 -22 1 -49 -1 -60 -6 -17 -7
-14 -9 14 -9 19 -1 32 -4 28 -7 -9 -9 -97 6 -97 17 0 5 9 9 20 9 35 0 88 27
94 48 12 37 96 49 96 14 0 -12 -3 -13 -12 -4 -7 7 -16 12 -21 12 -5 0 -1 -8 9
-17 11 -12 34 -18 65 -19 45 0 48 1 43 21 -3 12 -6 30 -8 40 -2 10 -9 21 -17
23 -11 3 -11 1 1 -7 12 -8 12 -11 1 -11 -10 0 -11 -3 -2 -14 9 -10 8 -15 -3
-19 -20 -8 -27 3 -15 24 8 15 6 19 -8 20 -16 0 -16 1 2 9 23 10 21 11 -23 15
-18 1 -35 -1 -38 -6 -3 -5 -11 -9 -17 -9 -19 1 33 40 53 40 10 0 23 -7 30 -15
7 -8 19 -15 28 -15 10 0 6 7 -11 20 -14 11 -31 20 -38 20 -10 0 -10 3 -1 12 8
8 16 5 32 -13 16 -18 20 -19 16 -6 -3 11 -2 16 4 12 6 -3 10 -3 10 2 0 13 -77
34 -96 26 -12 -4 -15 -3 -10 5 5 8 2 10 -9 6 -11 -5 -14 -2 -9 10 4 11 11 13
22 7 10 -4 23 -6 30 -4 7 3 24 -2 37 -11 14 -9 25 -12 25 -6 0 11 -13 17 -92
42 -30 10 -45 11 -41 4 11 -16 11 -76 1 -70 -9 6 -11 -10 -1 -19 3 -4 11 0 17
7 6 8 22 17 36 21 22 7 23 6 11 -8 -7 -9 -16 -15 -20 -13 -8 4 -45 -36 -49
-53 -2 -10 7 -12 35 -9 26 4 43 1 52 -9 15 -17 8 -29 -11 -17 -21 13 -48 15
-69 4 -17 -9 -19 -7 -19 18 0 15 5 33 12 40 9 9 9 12 -1 12 -9 0 -12 23 -10
85 1 47 5 85 10 85 4 0 15 -7 24 -16 13 -14 14 -19 3 -26 -10 -8 -10 -9 2 -5
21 6 52 -12 44 -25 -4 -7 -2 -8 5 -4 6 4 17 4 24 -2 7 -5 20 -12 30 -15 13 -5
17 -1 17 18 0 22 -4 25 -39 25 -22 0 -43 5 -46 11 -5 7 8 9 41 5 37 -4 41 -3
19 3 -16 5 -24 9 -17 10 6 0 12 6 12 11 0 12 -27 13 -32 1 -1 -4 -14 -12 -27
-16 -16 -5 -21 -4 -17 4 4 6 1 11 -6 11 -9 1 -7 5 4 14 13 10 15 15 6 24 -14
14 1 16 21 3 13 -8 13 -12 0 -27 -13 -16 -12 -16 18 -1 17 9 35 22 39 28 4 8
9 7 15 -2 6 -10 8 -7 6 8 0 12 -5 19 -9 17 -4 -3 -8 0 -8 5 0 6 6 11 13 11 8
0 8 3 -2 9 -8 5 -21 7 -29 3 -11 -4 -13 -1 -7 8 6 9 4 11 -4 6 -9 -6 -8 -13 5
-27 25 -28 5 -47 -31 -31 -17 8 -33 8 -51 2 -32 -13 -43 -13 -24 0 13 9 13 10
0 11 -8 1 -1 5 15 8 18 5 43 2 63 -5 34 -14 44 -6 15 12 -10 6 -37 10 -60 8
-36 -2 -43 1 -43 17 0 12 9 20 28 24 15 3 40 10 56 15 19 6 35 6 48 -1 11 -6
22 -9 24 -6 10 9 -46 29 -63 22 -10 -4 -30 -7 -45 -6 -16 2 -28 -2 -28 -8 0
-6 -4 -11 -10 -11 -5 0 -10 7 -10 15 0 8 7 15 16 15 8 0 12 5 9 10 -8 13 8 13
22 -1 15 -15 53 -2 47 16 -4 8 6 20 25 30 17 8 31 17 31 18 0 2 -19 4 -42 6
-23 1 -46 5 -51 8 -6 3 -7 1 -3 -5 4 -7 22 -12 39 -12 27 -1 29 -2 14 -11 -9
-5 -22 -7 -27 -4 -7 4 -8 -3 -4 -19 7 -29 2 -31 -27 -15 -15 7 -24 7 -35 -2
-12 -10 -14 -4 -14 39 0 44 2 51 18 46 16 -5 16 -5 0 9 -15 12 -18 34 -17 171
0 98 3 155 9 151 6 -3 10 -2 10 4 0 5 -5 11 -11 13 -6 2 -12 15 -12 30 -2 20
-10 29 -34 39 -18 7 -33 16 -33 19 0 4 -11 5 -25 2 -18 -3 -25 0 -25 12 0 14
36 16 370 16 l370 0 1 -57z m627 45 c-3 -7 -29 -17 -59 -22 -30 -5 -48 -11
-40 -14 8 -3 9 -7 3 -11 -7 -4 -6 -18 2 -41 17 -49 207 -343 216 -333 18 21
121 166 164 231 32 48 48 84 49 107 0 18 4 32 8 29 4 -2 10 0 13 5 3 5 -11 12
-31 16 -25 4 -32 9 -23 15 9 5 2 8 -20 7 -19 -1 -35 3 -37 11 -4 9 35 12 171
12 155 0 176 -2 176 -16 0 -12 -7 -15 -25 -12 -14 3 -22 1 -18 -5 3 -5 0 -7
-8 -5 -8 3 -26 -3 -41 -13 -20 -14 -28 -16 -31 -7 -3 7 -6 3 -6 -9 -1 -13 -7
-23 -16 -23 -8 0 -15 -5 -15 -11 0 -15 -39 -69 -50 -69 -5 0 -7 8 -3 18 5 14
3 15 -7 5 -10 -10 -11 -15 -1 -27 10 -12 9 -16 -6 -25 -10 -6 -14 -11 -9 -11
5 0 3 -7 -4 -15 -7 -8 -17 -12 -23 -8 -6 3 -7 1 -3 -6 11 -17 -12 -41 -32 -34
-13 4 -14 3 -3 -5 11 -8 9 -16 -14 -46 -15 -20 -32 -36 -37 -36 -5 0 -7 -4 -4
-8 3 -5 -6 -21 -19 -36 -13 -15 -25 -32 -27 -38 -2 -5 -27 -11 -56 -12 -52 -3
-92 -23 -64 -33 6 -3 9 -10 5 -16 -4 -6 10 -1 31 11 41 24 56 27 56 11 0 -5
-5 -7 -12 -3 -15 10 -19 15 164 -257 86 -130 171 -249 189 -263 17 -14 51 -31
75 -37 46 -12 62 -40 22 -38 -22 0 -22 1 -3 8 14 6 2 10 -43 15 -34 4 -67 4
-72 1 -6 -3 -10 -1 -10 4 0 6 10 11 22 11 21 0 20 2 -10 30 -18 17 -37 30 -42
30 -5 0 -7 6 -5 13 2 6 -2 21 -11 32 -12 16 -18 18 -34 7 -10 -6 -27 -9 -37
-5 -17 6 -16 5 1 -15 11 -12 29 -22 40 -21 21 0 21 1 1 9 -19 7 -19 8 -1 15
22 10 40 -13 24 -32 -8 -10 -7 -13 4 -13 7 0 24 -7 36 -16 20 -13 20 -17 7
-30 -11 -12 -19 -13 -36 -4 -11 7 -32 9 -45 6 -13 -4 -24 -2 -24 3 0 17 43 20
66 4 15 -9 24 -11 24 -4 0 6 -5 11 -11 11 -5 0 -7 5 -4 10 3 6 -4 10 -17 10
-22 1 -83 29 -64 30 14 0 -27 29 -42 30 -7 0 -10 -5 -6 -11 5 -9 -1 -10 -22
-5 -16 4 -29 8 -30 9 0 1 -46 70 -101 154 -73 109 -98 154 -90 162 17 17 31
13 17 -4 -9 -11 -9 -15 -1 -15 7 0 9 -4 6 -10 -10 -16 11 -12 25 5 11 13 10
14 -3 10 -10 -5 -15 -1 -14 12 2 14 -4 17 -23 15 -14 -1 -26 -7 -28 -12 -2 -6
-20 -11 -40 -11 -31 -2 -32 -3 -9 -6 24 -4 40 -23 19 -23 -4 0 -16 -13 -25
-30 -11 -19 -26 -30 -40 -30 -18 0 -19 -2 -7 -10 12 -7 12 -10 1 -10 -7 0 -11
-6 -8 -14 9 -24 -17 -38 -39 -21 -15 12 -15 14 -2 9 10 -3 20 2 28 15 8 16 8
21 -2 22 -10 0 -10 2 0 6 6 2 12 9 12 15 0 6 -6 5 -15 -2 -9 -7 -14 -19 -11
-27 3 -8 2 -12 -3 -9 -5 3 -14 -1 -20 -8 -9 -11 -8 -17 9 -29 20 -14 20 -15
-17 -70 -21 -32 -44 -57 -53 -57 -13 1 -13 3 2 13 11 9 14 18 7 28 -14 23 -10
31 10 20 19 -10 31 -6 31 12 0 5 -7 7 -15 3 -8 -3 -15 -1 -15 4 0 6 5 10 11
10 5 0 7 5 4 10 -3 6 1 10 10 10 12 0 15 -5 10 -17 -5 -15 -4 -16 6 -5 11 10
10 15 -2 27 -14 14 -19 11 -48 -25 -17 -22 -27 -40 -21 -40 5 0 10 -7 10 -16
0 -13 -3 -14 -13 -5 -19 15 -30 1 -14 -17 10 -13 9 -15 -12 -9 -19 5 -21 3
-10 -6 7 -7 19 -19 27 -27 12 -13 13 -13 8 3 -3 11 -2 16 4 12 6 -3 10 -24 10
-45 0 -34 4 -42 30 -55 16 -8 38 -15 50 -15 12 0 20 -6 20 -17 0 -13 -3 -14
-8 -6 -5 7 -27 14 -50 15 -24 1 -38 4 -32 8 8 5 7 9 -4 13 -10 4 -16 18 -16
36 0 37 -45 78 -67 60 -10 -9 -10 -15 -2 -25 6 -7 8 -17 5 -23 -3 -5 0 -12 6
-14 7 -3 2 -6 -11 -6 -19 -1 -21 2 -12 13 19 22 -8 32 -27 10 -16 -17 -16 -17
3 -3 19 13 19 13 6 -4 -8 -10 -20 -16 -27 -13 -8 3 -11 0 -8 -9 4 -10 18 -13
47 -10 46 5 77 -2 77 -15 0 -5 -11 -5 -25 2 -15 7 -29 8 -37 2 -7 -6 -31 -7
-53 -3 -22 3 -34 7 -26 8 8 0 12 4 9 7 -4 3 -19 -1 -35 -9 -15 -8 -44 -18 -63
-22 -19 -4 -38 -13 -42 -19 -5 -7 -8 -5 -8 6 0 11 10 20 28 24 97 20 155 73
319 286 77 100 109 135 121 131 13 -4 14 -3 3 5 -11 8 -10 14 4 36 21 31 22
31 60 6 29 -19 30 -19 47 0 25 26 23 34 -4 16 -27 -19 -50 -21 -26 -3 14 11
10 13 -30 13 -44 -1 -48 1 -69 39 -12 21 -19 43 -17 47 3 4 -2 8 -10 8 -15 0
-18 6 -15 28 1 4 5 6 11 4 5 -1 7 2 3 7 -3 6 -11 8 -18 5 -12 -4 -104 122 -99
138 1 4 -4 8 -10 9 -7 0 -4 4 7 9 19 8 19 9 -2 9 -14 1 -32 16 -50 42 -15 22
-42 59 -60 83 -25 33 -29 46 -20 55 9 9 9 11 -3 6 -15 -5 -93 28 -85 37 3 2
-9 3 -25 0 -23 -3 -30 0 -30 12 0 14 25 16 226 16 176 0 225 -3 222 -12z
m2489 -11 c126 -42 207 -133 207 -235 0 -32 -3 -73 -7 -93 -9 -44 -64 -129
-83 -129 -8 0 -14 -6 -14 -13 0 -12 -118 -72 -126 -64 -2 2 24 17 57 34 63 33
62 39 -9 48 -21 2 -36 -3 -48 -16 -20 -23 -16 -24 20 -5 15 8 36 11 47 9 19
-5 19 -6 -2 -21 -12 -8 -35 -15 -51 -15 -19 0 -24 -3 -16 -9 7 -4 -1 -5 -19
-2 -19 4 -39 2 -46 -5 -8 -6 -17 -8 -20 -4 -4 3 -7 1 -7 -5 0 -15 13 -15 27
-1 6 6 21 8 34 4 l23 -8 -25 -12 c-13 -7 -35 -16 -48 -20 -18 -6 -22 -4 -16 6
5 8 5 11 0 7 -4 -4 -17 -3 -29 3 -19 9 -20 9 -3 -4 16 -14 15 -15 -15 -20 -22
-3 -42 2 -60 14 -14 11 -40 19 -57 19 -17 0 -31 5 -31 10 0 6 31 10 73 10 185
0 265 68 275 233 4 66 7 77 22 77 10 0 21 -5 23 -10 3 -6 4 -5 3 2 -1 7 -14
14 -27 16 -17 2 -29 13 -39 35 -7 18 -16 37 -18 42 -3 6 1 5 9 -2 11 -8 21 -8
42 1 28 11 28 12 10 27 -13 11 -28 13 -53 8 l-35 -7 39 1 c22 1 41 -3 43 -9 5
-14 -35 -26 -43 -13 -3 5 -9 7 -14 4 -4 -3 -14 2 -21 11 -38 46 -168 83 -246
69 l-38 -6 0 -235 c0 -171 -3 -237 -12 -242 -20 -13 2 -33 36 -34 17 -1 34 -5
37 -10 3 -5 -13 -7 -37 -5 -24 2 -44 8 -46 14 -2 6 -18 9 -35 7 -44 -5 -48
-14 -7 -15 31 -1 32 -2 9 -8 -14 -5 -33 -4 -44 1 -12 7 -22 6 -29 -1 -12 -12
12 -15 91 -13 35 1 41 -2 32 -13 -6 -7 -7 -16 -2 -19 4 -2 9 -46 11 -95 2 -71
-1 -91 -11 -91 -9 0 -13 11 -12 34 2 27 -1 33 -15 29 -9 -2 -25 5 -34 15 -11
11 -26 18 -36 15 -11 -3 -22 0 -25 6 -9 14 -26 14 -26 0 0 -5 4 -8 9 -5 5 4
11 1 13 -6 2 -6 12 -12 22 -14 28 -4 86 -34 86 -44 0 -14 -6 -13 -48 13 -36
22 -82 25 -82 6 0 -5 11 -7 24 -3 14 3 33 1 43 -6 16 -10 14 -11 -10 -7 -19 3
-27 1 -23 -8 4 -11 -26 -45 -39 -45 -3 0 -5 23 -5 51 0 37 3 48 13 43 10 -6
10 -4 0 7 -7 7 -13 38 -13 70 l0 58 32 -10 c44 -12 47 -4 4 11 l-36 12 0 74
c0 42 4 73 8 70 4 -2 14 -1 22 5 12 7 10 9 -7 9 -23 0 -23 2 -24 128 -1 70 -1
130 0 135 3 21 -22 104 -37 121 -16 18 -16 19 18 13 19 -3 44 -8 55 -12 13 -4
11 -1 -6 9 -15 9 -47 14 -80 13 -57 -1 -84 8 -73 25 4 6 99 8 278 6 217 -4
281 -8 323 -21z m913 8 c0 -10 -10 -15 -29 -15 -17 0 -42 -11 -60 -26 -23 -19
-43 -26 -78 -27 -32 0 -41 -3 -28 -8 11 -4 33 -4 49 -1 27 5 29 3 23 -19 -4
-13 -7 -102 -7 -198 0 -160 -1 -173 -17 -167 -17 6 -17 5 0 -8 15 -12 17 -33
17 -175 0 -136 -2 -161 -15 -161 -8 0 -15 -6 -15 -13 0 -7 -8 -13 -17 -14 -10
-1 -28 -4 -40 -8 -15 -5 -23 -3 -23 4 0 7 5 9 13 5 6 -4 3 2 -7 14 -22 26 -11
29 16 5 10 -9 21 -13 25 -9 5 4 0 12 -10 18 -18 9 -18 10 0 24 10 7 13 14 6
14 -6 0 -15 -4 -18 -10 -3 -5 -13 -10 -21 -10 -8 0 -12 4 -9 10 4 6 -1 7 -11
3 -16 -6 -16 -4 2 20 19 26 50 28 65 4 4 -6 13 -5 25 3 16 10 16 11 2 6 -10
-3 -18 -1 -18 4 0 6 -10 10 -22 10 -19 0 -20 2 -8 10 24 15 2 12 -31 -5 -26
-14 -31 -14 -44 -1 -20 19 -20 76 -1 76 8 0 18 -5 22 -12 5 -8 2 -9 -9 -5 -20
7 -22 -4 -5 -21 9 -9 9 -12 -2 -12 -13 0 -13 -2 0 -10 8 -5 20 -10 25 -10 6 0
3 5 -5 10 -12 8 -10 10 10 9 14 -1 33 2 43 6 10 4 17 3 17 -4 0 -7 8 -7 25 1
19 8 22 14 13 20 -7 4 -17 8 -23 8 -5 0 -3 -5 5 -10 13 -8 13 -10 -2 -10 -9 0
-19 6 -22 13 -5 10 -7 10 -12 0 -6 -15 -54 -18 -54 -4 0 12 25 21 58 21 19 0
23 3 13 9 -9 6 -10 11 -2 15 6 4 15 4 21 1 5 -3 7 0 4 8 -3 8 2 17 10 20 9 4
16 10 16 15 0 15 -47 31 -71 25 l-24 -5 24 17 c19 15 25 15 32 4 7 -12 11 -11
25 3 16 16 16 17 -6 11 -17 -5 -21 -3 -15 7 4 7 -11 2 -34 -10 -24 -14 -37
-27 -30 -31 8 -5 8 -8 0 -13 -11 -7 -60 23 -61 37 0 4 7 7 15 7 8 0 15 -6 15
-12 0 -9 3 -8 10 2 5 9 5 19 -2 27 -17 20 -3 26 16 7 9 -9 20 -14 23 -10 4 3
-2 12 -12 20 -17 12 -17 14 6 29 13 10 18 17 12 17 -6 0 -19 -7 -28 -16 -8 -9
-22 -14 -29 -11 -15 6 -16 -9 -3 -30 5 -8 3 -13 -7 -13 -12 0 -16 10 -16 35 0
28 4 35 19 35 11 0 23 5 26 10 6 10 30 8 70 -5 11 -3 8 1 -7 10 -27 15 -91 18
-82 3 3 -4 -1 -8 -9 -8 -9 0 -14 11 -15 30 -1 29 13 41 20 18 3 -8 9 -8 24 1
13 9 14 11 2 7 -36 -11 -46 23 -47 146 0 184 -10 209 -88 224 -19 4 -33 12
-33 20 0 12 37 14 210 14 180 0 210 -2 210 -15z m2299 4 c84 -15 142 -42 186
-88 46 -47 85 -171 54 -171 -5 0 -7 5 -4 11 4 6 -2 13 -13 16 -14 3 -19 10
-15 21 4 10 -1 8 -15 -6 -19 -19 -25 -21 -43 -10 -12 7 -30 18 -40 24 -23 13
-15 24 20 25 l26 1 -25 7 c-14 4 -40 11 -58 16 -18 4 -38 17 -44 28 -14 27
-49 56 -68 57 -12 0 -11 3 3 11 9 5 17 15 17 22 0 9 -2 9 -8 0 -12 -18 -51
-21 -102 -8 -25 7 -54 8 -65 4 -11 -4 -32 -10 -47 -13 -16 -4 -28 -11 -28 -16
0 -5 8 -7 18 -4 11 4 9 -1 -8 -15 -14 -12 -18 -19 -9 -16 21 8 26 -19 19 -100
-3 -40 -7 -54 -13 -42 -4 11 -5 23 -2 27 9 15 -97 3 -112 -13 -13 -13 -12 -14
12 -14 19 0 23 2 14 8 -10 6 -6 9 14 10 15 1 32 2 39 3 6 1 13 -5 16 -11 2 -8
-7 -13 -25 -14 -15 0 -22 -3 -14 -6 11 -5 11 -7 0 -14 -11 -7 -11 -9 2 -9 8 0
21 6 27 12 10 10 15 10 21 0 5 -8 12 -14 16 -15 8 -2 7 -138 0 -145 -2 -2 -9
-1 -15 3 -9 6 -9 10 1 16 11 7 10 9 -3 9 -10 0 -18 -3 -18 -7 0 -10 -49 -33
-68 -33 -7 0 -10 5 -7 11 4 6 13 8 21 5 15 -6 15 15 -1 26 -14 10 0 19 19 12
9 -3 13 -10 10 -15 -3 -5 2 -6 11 -3 11 5 13 10 5 19 -5 6 -7 15 -3 18 3 4 1
7 -5 7 -7 0 -12 -5 -12 -12 0 -6 -2 -9 -5 -6 -8 8 6 39 15 33 4 -3 13 2 20 10
9 10 9 15 1 15 -6 0 -11 5 -11 11 0 6 9 8 23 4 17 -6 19 -5 11 5 -7 7 -21 9
-34 5 -18 -6 -19 -9 -8 -23 11 -13 10 -15 -5 -9 -12 5 -16 3 -11 -5 5 -8 -2
-9 -25 -5 -23 5 -33 3 -38 -8 -4 -12 -9 -13 -19 -4 -19 16 -20 209 -1 209 9 0
9 2 0 8 -6 4 -14 19 -18 34 -6 22 -3 27 17 31 21 4 21 4 -4 6 -15 0 -30 6 -33
12 -7 10 -48 29 -74 33 -8 2 -17 8 -19 14 -5 16 446 16 537 1z m129 -224 c3
-3 -2 -13 -11 -23 -26 -28 -20 -39 6 -13 14 12 31 19 39 16 9 -4 19 -2 22 4 9
14 36 2 36 -15 0 -8 5 -14 12 -14 6 0 8 -3 5 -7 -4 -3 -17 2 -28 13 -22 19
-22 19 -8 -3 8 -13 19 -23 26 -23 16 0 16 -1 -3 -50 -9 -22 -26 -46 -37 -52
-20 -10 -20 -10 1 17 24 30 28 45 11 45 -5 0 -7 -4 -4 -10 3 -5 1 -10 -4 -10
-6 0 -10 -6 -8 -12 1 -7 -9 -14 -23 -16 -23 -2 -24 -1 -7 11 25 20 21 27 -7
14 -13 -7 -22 -15 -20 -19 2 -3 -5 -9 -16 -13 -16 -5 -18 -10 -10 -25 8 -15 5
-20 -22 -29 -39 -14 -51 -5 -13 9 27 10 27 11 9 24 -22 16 -38 11 -30 -10 3
-8 1 -14 -5 -14 -6 0 -9 -6 -6 -14 3 -8 -4 -18 -16 -24 -27 -12 -162 -35 -199
-34 -16 1 -28 -3 -28 -8 0 -5 6 -7 14 -4 8 3 16 1 19 -3 3 -5 -10 -10 -28 -11
-29 -2 -34 0 -28 14 5 14 2 16 -23 10 -16 -4 -35 -12 -42 -18 -15 -13 -92 -17
-92 -6 0 4 -7 8 -15 8 -12 0 -15 16 -15 85 l0 85 24 -15 c23 -15 25 -15 34 2
6 10 14 15 18 11 10 -11 -14 -36 -38 -40 -12 -2 -22 -11 -24 -20 -1 -11 3 -15
12 -11 17 6 19 -13 2 -21 -9 -4 -8 -5 2 -4 8 1 23 -2 32 -6 10 -5 27 -1 42 9
28 19 66 12 66 -11 0 -12 -4 -12 -21 -4 -24 13 -41 4 -19 -10 21 -13 176 -12
225 1 53 15 102 66 117 123 9 36 17 46 33 46 19 -1 19 -1 3 -14 -10 -7 -18
-19 -18 -27 0 -9 6 -7 18 7 9 12 27 21 39 20 14 -2 19 2 16 11 -3 8 0 12 8 10
8 -2 11 -2 7 0 -15 8 -8 22 7 17 8 -4 15 -1 15 5 0 22 -53 4 -56 -19 -1 -5 -2
-13 -3 -17 0 -3 -10 4 -21 17 -14 16 -20 19 -21 9 -1 -15 -16 36 -18 63 -1 14
4 15 30 8 18 -5 34 -12 37 -15z m-378 -315 c0 -28 -2 -30 -20 -20 -15 8 -20 8
-20 -1 0 -6 -9 -9 -20 -6 -11 3 -23 1 -26 -4 -5 -9 28 -13 71 -10 17 2 17 0 5
-8 -10 -7 -11 -11 -2 -11 9 0 12 -31 12 -120 0 -89 -3 -120 -12 -121 -10 0
-10 -2 0 -6 6 -2 12 -10 12 -16 0 -8 -4 -7 -12 1 -7 7 -19 12 -27 12 -10 0 -5
-7 12 -18 32 -20 35 -37 6 -39 -31 -3 -49 -23 -20 -23 12 0 19 -4 16 -10 -4
-6 -12 -7 -18 -4 -9 5 -9 4 0 -6 14 -15 33 -5 33 17 0 23 13 7 17 -20 6 -35
28 -50 86 -55 81 -6 159 20 210 71 50 50 69 105 66 189 -2 43 1 62 12 69 11 7
10 9 -6 10 -11 0 -14 3 -7 6 7 3 20 2 29 -1 14 -6 14 -8 -1 -25 -16 -17 -15
-18 8 -14 14 3 31 11 37 19 14 17 -2 19 -20 2 -7 -7 -12 -8 -11 -3 5 24 -2 33
-27 40 -16 4 -37 16 -47 27 -19 21 -19 21 20 14 21 -4 56 -7 76 -6 20 0 39 -4
43 -10 4 -6 -1 -7 -11 -3 -12 5 -15 3 -9 -6 6 -10 2 -11 -15 -6 -20 6 -21 5
-9 -8 10 -11 18 -12 27 -5 7 6 16 8 19 4 4 -4 1 -12 -7 -17 -12 -8 -10 -9 6
-4 13 3 26 -1 34 -10 11 -13 10 -15 -6 -14 -38 4 -65 -1 -59 -11 3 -6 -4 -10
-18 -10 -16 0 -28 -9 -36 -27 -19 -43 1 -48 53 -13 26 18 50 29 54 25 4 -4 1
-10 -6 -12 -6 -3 -10 -8 -7 -13 3 -4 -5 -6 -17 -3 -22 5 -22 5 -4 -9 10 -8 30
-13 45 -12 l26 4 -25 -9 c-14 -5 -21 -9 -16 -10 6 -1 1 -8 -10 -16 -18 -14
-18 -14 0 -15 10 0 25 8 33 18 8 9 11 11 7 3 -5 -11 -3 -13 9 -8 10 3 17 2 17
-3 0 -6 -9 -10 -21 -10 -11 0 -17 -5 -14 -10 10 -17 -45 -32 -76 -21 -19 7
-31 6 -35 0 -3 -6 -12 -8 -20 -5 -8 3 -14 1 -14 -3 0 -5 7 -11 15 -15 24 -9
17 -24 -12 -28 -16 -2 -27 -7 -27 -13 1 -5 -8 -16 -19 -24 -19 -14 -19 -14 4
-28 18 -11 19 -13 4 -8 -11 4 -22 7 -25 8 -3 0 -27 -11 -55 -25 -27 -14 -74
-29 -103 -33 -34 -4 -50 -11 -46 -18 3 -7 -1 -4 -9 6 -8 9 -28 17 -45 17 -19
0 -32 6 -36 17 -5 12 -9 14 -18 5 -14 -14 -38 -16 -38 -2 0 5 7 6 17 3 12 -5
14 -3 8 7 -5 9 -4 11 3 6 7 -4 12 -1 12 8 0 19 -11 21 -28 4 -9 -9 -12 -9 -12
2 0 10 -4 10 -17 -3 -11 -9 -28 -13 -45 -10 -34 6 -78 -4 -78 -18 0 -6 9 -8
20 -4 12 4 20 2 20 -5 0 -6 -10 -10 -23 -8 -12 1 -33 -5 -47 -15 -13 -9 -33
-17 -43 -17 -10 0 -15 -4 -12 -10 3 -5 -1 -10 -9 -10 -9 0 -16 7 -16 15 0 9 9
15 25 15 14 0 39 13 57 29 27 24 32 36 36 89 4 60 23 95 37 72 3 -5 -1 -13
-10 -16 -13 -6 -14 -8 -3 -15 19 -13 30 -11 22 4 -5 9 -4 9 5 1 7 -7 22 -9 34
-6 22 6 21 6 -2 12 -32 7 -38 27 -10 35 20 7 20 8 5 23 -13 14 -20 14 -36 4
-29 -18 -40 -15 -40 13 0 14 5 25 10 25 6 0 9 -6 8 -12 -2 -7 3 -13 10 -12 47
4 48 4 32 14 -11 7 -7 9 14 7 16 -1 32 -9 34 -16 3 -10 0 -12 -12 -8 -9 4 -16
2 -16 -4 0 -6 14 -7 38 -3 46 8 46 8 38 39 -5 21 -11 25 -41 22 -19 -1 -35 -5
-35 -9 0 -5 -8 -8 -17 -8 -14 0 -15 2 -4 9 7 5 10 14 7 20 -5 8 0 8 17 2 13
-5 30 -6 37 -1 7 4 19 6 27 3 7 -3 13 0 13 6 0 6 -6 11 -12 12 -10 0 -10 2 0
6 20 8 14 22 -8 16 -10 -3 -18 -10 -17 -15 1 -6 -5 -13 -13 -15 -9 -3 -11 -1
-5 4 18 15 17 43 -2 42 -10 0 -13 -3 -6 -6 19 -7 -3 -44 -22 -36 -12 4 -13 9
-5 18 8 9 8 15 0 20 -5 3 -10 1 -10 -5 0 -6 -5 -8 -11 -4 -8 5 -8 1 0 -14 9
-16 7 -21 -8 -25 -32 -8 -39 6 -40 73 0 62 1 65 24 66 14 1 25 -2 25 -7 0 -5
7 -9 16 -9 8 0 13 -4 9 -10 -4 -6 -15 -6 -31 0 -37 14 -42 12 -16 -6 18 -13
29 -14 54 -5 39 14 47 14 28 0 -13 -10 -13 -10 1 -6 8 3 21 -3 27 -14 8 -13 9
-19 1 -19 -5 0 -7 -5 -4 -10 10 -17 25 -1 25 26 0 14 -4 23 -8 20 -5 -3 -15 4
-22 14 -9 13 -18 16 -25 10 -8 -7 -18 -3 -30 10 -10 11 -31 20 -47 20 -22 0
-28 5 -28 21 0 17 3 19 14 10 24 -20 91 -16 122 7 16 12 30 22 32 22 1 0 2
-14 2 -30z m-2969 -62 c17 -24 77 -113 133 -198 105 -158 165 -224 217 -235
16 -4 29 -11 29 -16 0 -14 -35 -2 -86 27 -22 13 -44 21 -48 16 -4 -4 -14 2
-22 13 -14 19 -15 19 -37 -6 l-22 -25 -31 32 -31 33 28 27 c17 16 34 24 43 21
9 -4 16 -2 16 3 0 6 -7 10 -16 10 -8 0 -12 5 -9 10 3 6 3 16 -1 22 -6 9 -10 5
-14 -12 -8 -33 -71 -46 -95 -20 -8 9 -12 20 -8 25 5 4 -1 5 -12 1 -16 -5 -15
-2 5 14 26 21 42 25 53 13 10 -9 57 -10 57 -1 0 26 -76 30 -112 6 -33 -23 -35
-23 -48 5 -9 18 -9 20 2 6 10 -12 18 -13 35 -4 21 11 21 12 -15 25 -20 8 -45
13 -54 11 -22 -3 -24 15 -2 23 10 4 13 2 8 -6 -4 -7 -3 -8 5 -4 6 4 9 11 6 16
-10 16 12 19 31 5 19 -14 19 -14 -1 -15 -27 -1 26 -24 79 -34 29 -6 37 -4 34
6 -3 7 -15 12 -29 10 -22 -3 -23 -3 -6 10 16 12 16 16 3 33 -12 16 -18 17 -39
8 -21 -10 -28 -9 -43 8 -17 19 -17 19 -30 0 -16 -23 -58 -36 -50 -16 3 8 0 16
-7 19 -7 3 0 3 14 0 26 -5 48 10 34 24 -3 3 -10 1 -14 -7 -7 -10 -9 -9 -14 3
-4 9 -13 13 -22 10 -9 -4 -25 2 -35 11 -22 20 -26 35 -9 35 5 0 8 -4 5 -9 -3
-5 1 -14 9 -21 12 -10 18 -10 32 1 13 11 17 11 20 2 7 -20 19 -15 31 11 l11
25 -34 -15 c-37 -15 -63 -19 -51 -6 4 4 11 7 14 8 4 0 19 7 35 14 29 14 32 37
3 32 -9 -2 -16 1 -16 6 0 13 29 24 42 15 7 -3 8 -1 4 5 -11 18 -27 14 -53 -10
-16 -15 -23 -17 -20 -8 2 8 2 12 0 8 -3 -5 -12 -8 -21 -8 -31 0 10 -20 43 -21
l30 -1 -28 -10 c-21 -7 -32 -7 -40 1 -14 14 -40 15 -32 1 15 -24 -4 -7 -21 18
-16 24 -16 25 -1 13 10 -8 21 -11 24 -7 4 4 1 11 -7 16 -13 9 -13 10 0 11 39
2 71 8 87 18 27 16 31 14 64 -31z m-348 -198 c9 -11 23 -20 31 -20 11 0 15
-20 17 -85 5 -98 18 -118 87 -132 24 -4 42 -12 40 -18 -1 -5 -7 -8 -13 -6 -34
12 -85 19 -119 16 -26 -2 -35 0 -25 6 8 5 22 9 31 9 16 0 16 2 0 30 -9 16 -21
30 -25 30 -5 0 -5 5 -1 11 4 8 1 8 -13 1 -15 -9 -19 -7 -19 8 0 10 4 16 8 14
4 -3 16 0 25 6 15 9 13 10 -12 8 -22 -2 -30 -8 -29 -20 1 -12 -5 -18 -20 -17
-11 0 -15 3 -8 6 24 10 13 32 -14 27 -18 -3 -23 -1 -18 7 5 9 2 10 -9 6 -10
-4 -23 -10 -31 -13 -11 -4 -14 1 -13 15 1 13 6 20 14 17 7 -3 15 -1 19 5 3 5
14 7 24 4 10 -3 21 -2 24 3 3 6 -3 12 -14 15 -11 3 -23 1 -26 -4 -3 -5 -15 -9
-27 -9 -21 1 -21 1 3 15 14 7 35 11 48 8 12 -3 22 -1 22 6 0 11 -49 9 -69 -3
-6 -4 -11 -2 -11 3 0 6 5 11 10 11 6 0 22 11 36 25 14 14 31 22 39 19 23 -9
18 -24 -6 -21 -12 1 -24 -5 -27 -13 -3 -12 -2 -12 8 -3 19 17 43 -6 26 -26 -9
-11 -8 -13 4 -9 8 3 14 15 12 27 -1 15 2 21 10 18 7 -2 12 -11 11 -18 -2 -9 6
-15 19 -16 18 -2 20 0 8 7 -8 5 -12 10 -7 10 4 0 -7 13 -25 30 -18 16 -28 30
-23 30 6 0 18 -9 28 -20z m1671 -32 c-13 -118 -16 -128 -30 -128 -8 0 -16 1
-18 3 -2 1 -13 -6 -24 -16 -11 -10 -23 -14 -26 -9 -3 6 9 23 28 38 18 16 32
34 29 40 -2 7 4 14 14 17 16 4 16 5 1 6 -10 0 -24 -12 -32 -28 -18 -34 -93
-101 -114 -101 -9 0 -12 -3 -9 -6 9 -9 67 16 67 28 0 6 7 5 15 -2 11 -9 18
-10 29 -1 7 6 22 8 31 4 13 -4 16 -3 11 5 -4 7 -2 12 3 12 6 0 11 -7 11 -16 0
-12 -7 -15 -25 -11 -17 3 -24 0 -22 -7 2 -6 12 -10 21 -10 9 1 16 -4 16 -12 0
-13 -29 -9 -40 7 -10 14 -65 15 -56 1 3 -4 -15 -7 -39 -7 -39 2 -42 0 -32 -16
6 -10 20 -20 32 -22 18 -4 18 -4 -3 -6 -12 0 -25 6 -28 14 -4 8 -10 13 -14 10
-5 -3 -11 -1 -15 5 -9 14 -65 13 -65 -2 0 -8 -3 -8 -9 -2 -15 14 -193 6 -184
-9 4 -7 -5 -4 -20 6 -15 9 -27 14 -27 9 0 -12 -83 -1 -105 14 -11 8 -14 14 -8
14 7 0 15 -4 18 -10 3 -5 26 -10 49 -10 41 0 43 1 38 25 -6 33 -19 40 -40 23
-15 -12 -16 -11 -3 5 9 11 10 17 2 17 -6 0 -16 -9 -23 -19 -10 -16 -13 -17
-26 -5 -7 8 -18 12 -23 8 -11 -7 -64 25 -55 33 3 3 12 -2 21 -11 21 -21 36
-21 28 1 -5 12 0 10 16 -6 12 -12 26 -19 32 -16 11 7 3 25 -12 25 -6 0 -17 7
-25 15 -13 12 -12 15 6 25 16 9 25 8 36 -1 9 -7 14 -8 14 -1 0 6 9 9 20 7 15
-3 19 1 17 15 -4 22 -17 39 -17 22 0 -7 -4 -12 -10 -12 -18 0 -11 18 9 25 12
4 18 12 14 21 -3 7 -1 14 5 14 5 0 11 -41 14 -90 2 -50 9 -95 15 -101 8 -8 58
-10 160 -7 126 4 154 8 189 26 44 22 85 65 110 114 12 24 18 27 30 17 9 -7 14
-8 14 -1 0 6 -6 12 -12 14 -10 4 -10 10 -1 31 19 41 33 33 27 -15z"/>
<path d="M6215 8174 c-269 -38 -480 -187 -594 -418 -52 -107 -70 -179 -77
-306 -7 -121 14 -231 65 -343 102 -226 309 -392 554 -444 86 -18 242 -13 332
11 259 70 488 302 551 561 26 102 23 268 -5 368 -76 274 -300 492 -566 550
-76 17 -212 27 -260 21z"/>
<path d="M7047 3488 c2 -5 -3 -8 -12 -8 -36 0 -136 -84 -171 -145 -9 -17 -15
-18 -47 -8 -26 8 -34 8 -31 -1 2 -6 16 -12 30 -12 31 -2 43 -12 25 -23 -7 -5
-12 -11 -11 -15 1 -3 -7 -41 -16 -84 -25 -105 -22 -270 5 -375 66 -252 246
-373 459 -308 86 26 168 95 206 174 54 110 72 324 41 471 -8 38 -12 73 -8 79
3 6 2 7 -4 4 -5 -3 -15 11 -22 31 -8 20 -27 56 -42 80 -16 24 -26 48 -23 54 4
6 2 8 -3 5 -6 -4 -29 12 -52 34 -23 23 -47 39 -55 36 -7 -3 -33 1 -57 9 -45
16 -222 17 -212 2z"/>
<path d="M10371 3376 c3 -3 28 -17 55 -31 34 -17 42 -25 27 -25 -12 0 -25 5
-28 10 -4 6 -11 8 -16 5 -5 -4 -9 -2 -9 3 0 6 -7 12 -14 15 -10 4 -13 1 -10
-7 3 -7 -7 -18 -21 -24 -14 -7 -24 -16 -21 -21 4 -5 0 -12 -6 -14 -8 -3 -5 -6
6 -6 12 -1 16 4 13 13 -3 8 1 17 9 20 16 6 18 -6 5 -32 -26 -52 -51 -114 -51
-127 0 -9 -10 -16 -22 -16 -17 -1 -19 -2 -5 -6 9 -2 17 -8 17 -13 0 -11 -26
-37 -51 -51 -13 -7 -18 -16 -14 -29 4 -12 -1 -22 -12 -29 -16 -9 -16 -10 5
-11 26 0 25 2 11 -38 -7 -20 -15 -29 -25 -25 -8 3 -14 9 -14 14 0 4 8 5 17 2
12 -5 15 -2 10 10 -4 10 -2 17 5 17 6 0 9 2 6 5 -3 3 -12 3 -21 -1 -16 -6 -41
-63 -32 -72 3 -3 5 0 5 6 0 6 7 9 15 6 17 -7 21 -34 4 -34 -5 0 -7 4 -4 10 3
6 -1 7 -9 4 -23 -9 -20 -21 7 -28 43 -11 352 -7 365 6 9 9 18 9 37 0 31 -14
46 -15 25 -2 -13 9 -13 10 1 10 8 0 30 -11 49 -25 39 -29 50 -31 50 -9 0 11
-6 14 -22 8 -22 -6 -22 -6 -6 12 9 11 14 25 10 31 -9 14 -70 9 -85 -6 -12 -12
-57 8 -57 26 0 7 -7 13 -15 13 -8 0 -15 5 -15 11 0 5 4 8 9 5 4 -3 25 -7 45
-10 27 -3 36 -1 36 10 0 17 -16 19 -23 2 -4 -10 -8 -10 -15 1 -5 7 -22 14 -37
14 -23 0 -25 1 -11 9 9 5 26 6 37 3 11 -4 26 -2 34 5 8 7 16 7 19 1 6 -10 46
-3 46 8 0 7 -62 7 -85 0 -22 -6 -85 14 -85 27 0 8 5 14 10 14 6 0 10 -5 10
-11 0 -5 5 -7 10 -4 19 12 10 25 -16 25 -27 0 -29 21 -3 28 11 3 11 1 -1 -8
-12 -10 -11 -11 8 -7 15 4 25 -1 32 -14 6 -10 17 -19 25 -19 22 0 18 18 -5 25
-11 3 -20 11 -20 16 0 5 -8 9 -17 9 -13 0 -14 3 -5 12 9 9 17 7 35 -10 30 -29
41 -28 58 5 11 21 11 27 1 30 -6 3 -10 9 -6 14 3 5 -2 12 -10 15 -9 3 -16 10
-16 16 0 5 5 6 11 2 7 -4 10 -1 7 7 -3 8 -9 14 -14 14 -5 0 -15 4 -21 8 -7 4
-33 6 -58 3 -41 -5 -63 6 -33 16 7 3 2 7 -10 10 -17 5 -22 2 -22 -13 0 -10 4
-19 10 -19 5 0 7 -8 3 -17 -3 -10 -3 -15 2 -11 4 4 16 3 26 -3 13 -6 19 -6 19
1 0 5 -7 10 -17 10 -9 0 -13 3 -9 7 10 11 50 11 63 1 7 -5 16 -7 20 -5 5 3 13
-6 20 -19 9 -20 9 -24 -5 -25 -10 0 -12 -3 -5 -5 7 -3 11 -11 9 -17 -1 -7 -1
-9 1 -4 8 12 23 8 23 -7 0 -28 -22 -28 -48 -1 -21 23 -27 25 -36 13 -31 -41
-42 -29 -88 91 l-45 118 46 -5 c42 -5 45 -4 32 11 -7 10 -19 17 -27 17 -7 0
-17 6 -21 13 -4 8 -21 17 -38 21 -16 4 -27 5 -24 2z"/>
</g>
</svg>
